<?xml version="1.0" encoding="utf-8"?>
<!-- Generator: Adobe Illustrator 16.0.4, SVG Export Plug-In . SVG Version: 6.00 Build 0)  -->
<!DOCTYPE svg PUBLIC "-//W3C//DTD SVG 1.1//EN" "http://www.w3.org/Graphics/SVG/1.1/DTD/svg11.dtd">
<svg version="1.1" id="Fridge" xmlns="http://www.w3.org/2000/svg" xmlns:xlink="http://www.w3.org/1999/xlink" x="0px" y="0px"
	 width="256px" height="375px" viewBox="0 0 256 375" enable-background="new 0 0 256 375" xml:space="preserve">
<filter  id="AI_GaussianBlur_7">
	<feGaussianBlur  stdDeviation="7"></feGaussianBlur>
</filter>
<filter  id="AI_GaussianBlur_4">
	<feGaussianBlur  stdDeviation="4"></feGaussianBlur>
</filter>
<g id="Core">

		<linearGradient id="SVGID_1_" gradientUnits="userSpaceOnUse" x1="201.1045" y1="83.8076" x2="411.3265" y2="-223.5543" gradientTransform="matrix(1 0 0 -1 -178 108)">
		<stop  offset="0" style="stop-color:#586E43"/>
		<stop  offset="1" style="stop-color:#2E391E"/>
	</linearGradient>
	<path fill="url(#SVGID_1_)" d="M248.705,42.408L121.196,4.201c-1.738-0.521-4.022-0.808-6.43-0.808
		c-2.343,0-4.567,0.273-6.262,0.771L16.1,28.515c-0.309,0.177-14.038,9.822-14.538,12.572L0.875,276.416l-0.687,25.038
		c0,4.087,2.234,9.556,6.422,12.546c0,0,11.132,8.273,17.193,11.586c3.656,1.997,17.281-4.794,17.281-4.794S42.719,320.422,67,332
		c26.649,12.707,34,13,34,13s3,2.025,3,6c-0.001,1.948,0,7,0,7s1,6,3,7c7.141,3.57,13.833,6,13.833,6c3.765,1.316,12.375,4.141,15,4
		c2.812-0.156,8.341-2.256,10-3c0,0,16.378-7.896,19-9c3.833-1.613,3.167-7,3.167-7s0-3.99,0-6c0-3.641,4-7,4-7l35.875-13.5
		c0,0,17.182,5.576,20.688,4.938c2.496-0.455,20.16-10.438,20.16-10.438c3.745-1.682,6.771-7.643,6.777-11.747l0.396-260.166
		C255.902,47.87,252.744,43.618,248.705,42.408z"/>
	<g opacity="0.9" filter="url(#AI_GaussianBlur_7)">
		<path d="M16,308c0,0,20,20,51,33s67,28,67,28s44-16,67-27s44-22,44-22l-18-6l-94,34L26,304L16,308z"/>
	</g>
</g>
<g id="Shading">
	<g>
		<defs>
			<path id="SVGID_2_" d="M248.705,42.408L121.196,4.201c-1.738-0.521-4.022-0.808-6.43-0.808c-2.343,0-4.567,0.273-6.262,0.771
				L16.1,28.515c-0.309,0.177-14.038,9.822-14.538,12.572L0.875,276.416l-0.687,26.521c0,4.086,0.625,9.556,4.812,12.545
				c0,0,12.938,7.205,19,10.518c3.656,1.997,17.083-3,17.083-3S50,325,66,332c27.048,11.834,35,14,35,14s3,2.025,3,6
				c-0.001,1.948,0,8,0,8s0.854,4.218,5,6c7.334,3.152,17.959,7.167,17.959,7.167c3.766,1.317,6.557,1.63,9.182,1.489
				c2.812-0.156,4.45-0.452,6.109-1.196c0,0,18.127-9.356,20.75-10.46c3.833-1.613,4-7,4-7s1-3.99,1-6c0-3.641,5-7,5-7l34.875-10
				c0,0,17.182,1.639,20.688,1c2.496-0.455,20.16-8,20.16-8c3.745-1.682,6.771-4.895,6.777-9l0.396-264.913
				C255.902,47.87,252.744,43.618,248.705,42.408z"/>
		</defs>
		<clipPath id="SVGID_3_">
			<use xlink:href="#SVGID_2_"  overflow="visible"/>
		</clipPath>
		<g opacity="0.2" clip-path="url(#SVGID_3_)" filter="url(#AI_GaussianBlur_4)">
			<path d="M250,317.5c-1.223,2.58-8.955,5.51-19.5,11.25c-6.07,3.307-20.652-6.365-28.25-2.75
				c-27.793,13.229-51.915,21.428-64.5,22c-12.798,0.582-59.065-12.158-94-29.75c-5.13-2.583-12.16,4.861-16.75,2.5
				C9.112,311.546-2,307-2,307l-0.5,7.5c0,0,120,64.5,141.5,60.5s124-51,124-51S254.5,308,250,317.5z"/>
		</g>
	</g>
</g>
<g id="Shell">

		<linearGradient id="SVGID_4_" gradientUnits="userSpaceOnUse" x1="185.5176" y1="74.6812" x2="429.606" y2="-214.3314" gradientTransform="matrix(1 0 0 -1 -178 108)">
		<stop  offset="0" style="stop-color:#87A167"/>
		<stop  offset="1" style="stop-color:#586E43"/>
	</linearGradient>
	<path fill="url(#SVGID_4_)" d="M248.811,39.014L121.3,0.808C119.562,0.287,117.278,0,114.87,0c-2.343,0-4.567,0.273-6.262,0.771
		L19.312,26.938c-0.309,0.177-1.854,0.833-2.021,1.292c2.062-0.562,3.09-0.874,3.708-0.874c2.409,0,4.692,0.287,6.431,0.808
		L154.939,66.37c4.039,1.211,7.197,5.462,7.189,9.68l-0.852,256.171l-18.924,8.49c-1.929,0.866-4.582,1.362-7.281,1.362l0,0
		c-2.021,0-3.883-0.273-5.385-0.792c-0.312-0.107-31.591-10.944-66.847-27.778c-35.285-16.847-56.75-31.235-56.962-31.379
		c-2.056-1.386-3.834-3.796-4.881-6.378c0.001-2.702-0.02-2.725-0.02-2.725S0,273.457,0,274.252s0,27.939,0,27.939
		c0,4.086,2.526,8.742,6.714,11.732c0,0,11.188,6.69,17.193,10.104c2.761,1.568,2.805-2.682,2.805-2.682s-0.012-4.932-0.012-6.666
		c0-3.64,2.435-2.64,2.435-2.64s10.326,6.448,37.042,19.017c26.715,12.567,35.282,15.336,35.282,15.336s2.676,1.117,2.676,5.092
		c-0.001,1.949-0.05,5.516-0.05,5.516s0.216,5.745,2.914,7c7.239,3.366,20.064,7.465,20.064,7.465
		c3.765,1.317,6.212,1.694,9.205,1.523l0,0c2.267,0,4.426-0.41,6.086-1.154c0,0,20.631-9.248,23.229-10.409s2.706-6.425,2.706-6.425
		s0-3.779,0-5.789c0-3.641,2.601-4.879,2.601-4.879l53.487-23.754c0,0,2.46-1.047,2.46,2.506c0,1.932-0.014,7.348-0.014,7.348
		s0.072,3.402,2.537,2.366c2.34-0.983,19.466-8.739,19.466-8.739c3.745-1.681,6.687-6.211,6.692-10.316L256,48.693
		C256.008,44.477,252.85,40.225,248.811,39.014z"/>

		<path opacity="0.2" fill="none" stroke="#FFFFFF" stroke-linecap="round" stroke-linejoin="round" stroke-miterlimit="10" enable-background="new    " d="
		M27.43,27.163L154.939,65.37c4.039,1.211,8.197,5.462,8.189,9.68l-0.852,258.171l-19.924,8.49
		c-1.929,0.866-4.582,1.362-7.281,1.362l0,0c-2.021,0-3.883-0.273-5.385-0.792c-0.312-0.107-31.591-10.944-66.847-27.778
		c-35.285-16.847-56.75-31.235-56.962-31.379c-2.056-1.386-4.922-4.208-5.38-6.5c-0.208-3,0.5-2.917,0.5-2.917"/>

		<linearGradient id="SVGID_5_" gradientUnits="userSpaceOnUse" x1="110.0903" y1="14.9336" x2="343.5915" y2="-279.0681" gradientTransform="matrix(1 0 0 -1 -178 108)">
		<stop  offset="0" style="stop-color:#87A167"/>
		<stop  offset="1" style="stop-color:#586E43"/>
	</linearGradient>
	<path fill="url(#SVGID_5_)" d="M160.132,285.24l-17.776,7.398c-1.93,0.864-4.584,1.36-7.281,1.36c-0.001,0-0.001,0-0.001,0
		c-2.021,0-3.882-0.272-5.386-0.791c-0.312-0.106-31.59-9.942-66.846-26.778c-35.285-16.847-56.75-30.236-56.962-30.38
		c-2.048-1.381-3.82-3.776-4.87-6.348c-0.026-0.875,0.005-2.438,0.005-2.438S0,227.906,0,229.469c0,1.563,0,39.592,0,39.592
		c0,3.978,2.583,8.832,5.88,11.057c0.212,0.143,21.677,14.531,56.962,31.379c35.255,16.835,66.534,27.671,66.846,27.777
		c1.504,0.52,3.365,0.793,5.386,0.793c0,0,0,0,0.001,0c2.697,0,5.352-0.496,7.281-1.362l17.776-7.397V285.24L160.132,285.24z"/>

		<path opacity="0.2" fill="none" stroke="#FFFFFF" stroke-linecap="round" stroke-linejoin="round" stroke-miterlimit="10" enable-background="new    " d="
		M160,285.834l-17.645,7.877c-1.93,0.866-4.584,1.362-7.281,1.362c-0.002,0-0.002,0-0.002,0c-2.021,0-3.881-0.273-5.385-0.792
		c-0.312-0.107-31.59-9.944-66.846-26.778c-35.285-16.847-56.75-30.235-56.962-30.379c-2.056-1.386-5.255-4.29-5.38-6.29
		c0.001-2.702,0.479-2.812,0.479-2.812"/>

		<linearGradient id="SVGID_6_" gradientUnits="userSpaceOnUse" x1="169.2812" y1="63.8789" x2="412.2823" y2="-227.1225" gradientTransform="matrix(1 0 0 -1 -178 108)">
		<stop  offset="0" style="stop-color:#87A167"/>
		<stop  offset="1" style="stop-color:#586E43"/>
	</linearGradient>
	<path fill="url(#SVGID_6_)" d="M5.88,234.361c0.212,0.143,21.677,13.533,56.962,30.379c35.255,16.836,66.534,26.672,66.846,26.779
		c1.504,0.518,3.365,0.791,5.386,0.791c0,0,0,0,0.001,0c2.697,0,5.352-0.496,7.281-1.361l17.776-7.398l0.493-207.983
		c-0.667-3.642-3.52-7.011-7.042-8.067L26.417,29.307c-1.739-0.521-9.253-1.316-10.51-1.12l-8.551,2.374
		c-4.051,1.188-7.223,5.425-7.223,9.646L0,223.305C0,227.283,2.583,232.139,5.88,234.361z"/>
</g>
<g id="Lighting">
	<g>
		<defs>
			<path id="SVGID_7_" d="M256,48.693l-0.48,265.048c-0.006,4.104-2.946,8.637-6.692,10.317c0,0-17.126,7.756-19.466,8.738
				c-2.465,1.036-2.537-2.367-2.537-2.367s0.014-5.414,0.014-7.347c0-3.554-2.46-2.506-2.46-2.506l-53.487,23.754
				c0,0-2.601,1.239-2.601,4.879c0,2.011,0,5.789,0,5.789s-0.108,5.265-2.706,6.425c-2.598,1.161-23.229,10.409-23.229,10.409
				c-1.66,0.744-3.82,1.153-6.086,1.153l0,0c-2.992,0.172-5.439-0.205-9.205-1.522c0,0-12.825-4.099-20.064-7.465
				c-2.698-1.255-2.914-7-2.914-7s0.049-3.565,0.05-5.515c0-3.976-2.676-5.094-2.676-5.094s-8.566-2.768-35.282-15.336
				c-26.716-12.566-37.042-19.016-37.042-19.016s-2.435-1-2.435,2.639c0,1.735,0.012,6.667,0.012,6.667s-0.044,4.249-2.805,2.681
				c-6.005-3.412-17.193-10.103-17.193-10.103C2.526,310.936,0,306.277,0,302.191c0,0,0-27.146,0-27.939s0.979-1.229,0.979-1.229
				s0.021,0.021,0.02,2.724c1.047,2.582,2.826,4.992,4.881,6.378c0.212,0.143,21.677,14.532,56.962,31.379
				c35.255,16.834,66.534,27.671,66.846,27.778c1.504,0.519,3.365,0.792,5.386,0.792c0,0,0,0,0.001,0
				c2.697,0,5.352-0.496,7.281-1.362l18.922-8.491l0.853-256.17c0.009-4.217-3.151-8.469-7.19-9.68L27.43,28.163
				c-1.738-0.521-4.022-0.808-6.431-0.808c-0.618,0-2.687,0.598-4.75,1.16c0.167-0.458,0.359-0.672,0.668-0.849l91.69-26.896
				c1.696-0.497,3.92-0.77,6.263-0.77c2.408,0,4.692,0.287,6.43,0.808l127.511,38.206C252.85,40.225,256.008,44.477,256,48.693z
				 M160.132,285.24l-17.776,7.398c-1.93,0.864-4.584,1.36-7.281,1.36c-0.001,0-0.001,0-0.001,0c-2.021,0-3.882-0.272-5.386-0.791
				c-0.312-0.106-31.59-9.942-66.846-26.778c-35.285-16.847-56.75-30.236-56.962-30.38c-2.048-1.381-3.82-3.776-4.87-6.348
				c-0.026-0.875,0.005-2.438,0.005-2.438S0,227.906,0,229.469c0,1.563,0,39.592,0,39.592c0,3.978,2.583,8.832,5.88,11.057
				c0.212,0.143,21.677,14.531,56.962,31.379c35.255,16.835,66.534,27.671,66.846,27.777c1.504,0.52,3.365,0.793,5.386,0.793
				c0,0,0,0,0.001,0c2.697,0,5.352-0.496,7.281-1.362l17.776-7.397V285.24L160.132,285.24z M5.88,234.361
				c0.212,0.143,21.677,13.533,56.962,30.379c35.255,16.836,66.534,26.672,66.846,26.779c1.504,0.518,3.365,0.791,5.386,0.791
				c0,0,0,0,0.001,0c2.697,0,5.352-0.496,7.281-1.361l17.776-7.398l0.493-207.983c-0.667-3.642-3.52-7.011-7.042-8.067
				L26.417,29.307c-1.739-0.521-9.253-1.316-10.51-1.12l-8.551,2.374c-4.051,1.188-7.223,5.425-7.223,9.646L0,223.305
				C0,227.283,2.583,232.139,5.88,234.361z"/>
		</defs>
		<clipPath id="SVGID_8_">
			<use xlink:href="#SVGID_7_"  overflow="visible"/>
		</clipPath>
		<g opacity="0.1" clip-path="url(#SVGID_8_)" filter="url(#AI_GaussianBlur_4)">
			<path d="M255.5,40c0,0-1,268-5.5,277.5s-92.5,50-114.5,51S-2,307-2,307l-0.5,7.5c0,0,117,74,138.5,70S263,324,263,324l-2.5-282
				L255.5,40z"/>
		</g>
	</g>
	<g>
		<defs>
			<path id="SVGID_9_" d="M256,48.693l-0.48,265.048c-0.006,4.104-2.946,8.637-6.692,10.317c0,0-17.126,7.756-19.466,8.738
				c-2.465,1.036-2.537-2.367-2.537-2.367s0.014-5.414,0.014-7.347c0-3.554-2.46-2.506-2.46-2.506l-53.487,23.754
				c0,0-2.601,1.239-2.601,4.879c0,2.011,0,5.789,0,5.789s-0.108,5.265-2.706,6.425c-2.598,1.161-23.229,10.409-23.229,10.409
				c-1.66,0.744-3.82,1.153-6.086,1.153l0,0c-2.992,0.172-5.439-0.205-9.205-1.522c0,0-12.825-4.099-20.064-7.465
				c-2.698-1.255-2.914-7-2.914-7s0.049-3.565,0.05-5.515c0-3.976-2.676-5.094-2.676-5.094s-8.566-2.768-35.282-15.336
				c-26.716-12.566-37.042-19.016-37.042-19.016s-2.435-1-2.435,2.639c0,1.735,0.012,6.667,0.012,6.667s-0.044,4.249-2.805,2.681
				c-6.005-3.412-17.193-10.103-17.193-10.103C2.526,310.936,0,306.277,0,302.191c0,0,0-27.146,0-27.939s0.979-1.229,0.979-1.229
				s0.021,0.021,0.02,2.724c1.047,2.582,2.826,4.992,4.881,6.378c0.212,0.143,21.677,14.532,56.962,31.379
				c35.255,16.834,66.534,27.671,66.846,27.778c1.504,0.519,3.365,0.792,5.386,0.792c0,0,0,0,0.001,0
				c2.697,0,5.352-0.496,7.281-1.362l18.922-8.491l0.853-256.17c0.009-4.217-3.151-8.469-7.19-9.68L27.43,28.163
				c-1.738-0.521-4.022-0.808-6.431-0.808c-0.618,0-2.687,0.598-4.75,1.16c0.167-0.458,0.359-0.672,0.668-0.849l91.69-26.896
				c1.696-0.497,3.92-0.77,6.263-0.77c2.408,0,4.692,0.287,6.43,0.808l127.511,38.206C252.85,40.225,256.008,44.477,256,48.693z
				 M160.132,285.24l-17.776,7.398c-1.93,0.864-4.584,1.36-7.281,1.36c-0.001,0-0.001,0-0.001,0c-2.021,0-3.882-0.272-5.386-0.791
				c-0.312-0.106-31.59-9.942-66.846-26.778c-35.285-16.847-56.75-30.236-56.962-30.38c-2.048-1.381-3.82-3.776-4.87-6.348
				c-0.026-0.875,0.005-2.438,0.005-2.438S0,227.906,0,229.469c0,1.563,0,39.592,0,39.592c0,3.978,2.583,8.832,5.88,11.057
				c0.212,0.143,21.677,14.531,56.962,31.379c35.255,16.835,66.534,27.671,66.846,27.777c1.504,0.52,3.365,0.793,5.386,0.793
				c0,0,0,0,0.001,0c2.697,0,5.352-0.496,7.281-1.362l17.776-7.397V285.24L160.132,285.24z M5.88,234.361
				c0.212,0.143,21.677,13.533,56.962,30.379c35.255,16.836,66.534,26.672,66.846,26.779c1.504,0.518,3.365,0.791,5.386,0.791
				c0,0,0,0,0.001,0c2.697,0,5.352-0.496,7.281-1.361l17.776-7.398l0.493-207.983c-0.667-3.642-3.52-7.011-7.042-8.067
				L26.417,29.307c-1.739-0.521-9.253-1.316-10.51-1.12l-8.551,2.374c-4.051,1.188-7.223,5.425-7.223,9.646L0,223.305
				C0,227.283,2.583,232.139,5.88,234.361z"/>
		</defs>
		<clipPath id="SVGID_10_">
			<use xlink:href="#SVGID_9_"  overflow="visible"/>
		</clipPath>
		<g opacity="0.05" clip-path="url(#SVGID_10_)" filter="url(#AI_GaussianBlur_7)">
			<path fill="#F9FFE6" d="M2.5,34.5c0,0,35,17.5,67.5,27.5s51,5.167,61,3.667S253.5,45,253.5,45s-68.167,43.167-69.167,54.667
				S136.5,372,136.5,372S111,167,94.333,118.333c-5.187-15.145-24.5-36.833-52-47.333S2.5,34.5,2.5,34.5z"/>
		</g>
	</g>
	<g>
		<defs>
			<path id="SVGID_11_" d="M256,48.693l-0.48,265.048c-0.006,4.104-2.946,8.637-6.692,10.317c0,0-17.126,7.756-19.466,8.738
				c-2.465,1.036-2.537-2.367-2.537-2.367s0.014-5.414,0.014-7.347c0-3.554-2.46-2.506-2.46-2.506l-53.487,23.754
				c0,0-2.601,1.239-2.601,4.879c0,2.011,0,5.789,0,5.789s-0.108,5.265-2.706,6.425c-2.598,1.161-23.229,10.409-23.229,10.409
				c-1.66,0.744-3.82,1.153-6.086,1.153l0,0c-2.992,0.172-5.439-0.205-9.205-1.522c0,0-12.825-4.099-20.064-7.465
				c-2.698-1.255-2.914-7-2.914-7s0.049-3.565,0.05-5.515c0-3.976-2.676-5.094-2.676-5.094s-8.566-2.768-35.282-15.336
				c-26.716-12.566-37.042-19.016-37.042-19.016s-2.435-1-2.435,2.639c0,1.735,0.012,6.667,0.012,6.667s-0.044,4.249-2.805,2.681
				c-6.005-3.412-17.193-10.103-17.193-10.103C2.526,310.936,0,306.277,0,302.191c0,0,0-27.146,0-27.939s0.979-1.229,0.979-1.229
				s0.021,0.021,0.02,2.724c1.047,2.582,2.826,4.992,4.881,6.378c0.212,0.143,21.677,14.532,56.962,31.379
				c35.255,16.834,66.534,27.671,66.846,27.778c1.504,0.519,3.365,0.792,5.386,0.792c0,0,0,0,0.001,0
				c2.697,0,5.352-0.496,7.281-1.362l18.922-8.491l0.853-256.17c0.009-4.217-3.151-8.469-7.19-9.68L27.43,28.163
				c-1.738-0.521-4.022-0.808-6.431-0.808c-0.618,0-2.687,0.598-4.75,1.16c0.167-0.458,0.359-0.672,0.668-0.849l91.69-26.896
				c1.696-0.497,3.92-0.77,6.263-0.77c2.408,0,4.692,0.287,6.43,0.808l127.511,38.206C252.85,40.225,256.008,44.477,256,48.693z
				 M160.132,285.24l-17.776,7.398c-1.93,0.864-4.584,1.36-7.281,1.36c-0.001,0-0.001,0-0.001,0c-2.021,0-3.882-0.272-5.386-0.791
				c-0.312-0.106-31.59-9.942-66.846-26.778c-35.285-16.847-56.75-30.236-56.962-30.38c-2.048-1.381-3.82-3.776-4.87-6.348
				c-0.026-0.875,0.005-2.438,0.005-2.438S0,227.906,0,229.469c0,1.563,0,39.592,0,39.592c0,3.978,2.583,8.832,5.88,11.057
				c0.212,0.143,21.677,14.531,56.962,31.379c35.255,16.835,66.534,27.671,66.846,27.777c1.504,0.52,3.365,0.793,5.386,0.793
				c0,0,0,0,0.001,0c2.697,0,5.352-0.496,7.281-1.362l17.776-7.397V285.24L160.132,285.24z M5.88,234.361
				c0.212,0.143,21.677,13.533,56.962,30.379c35.255,16.836,66.534,26.672,66.846,26.779c1.504,0.518,3.365,0.791,5.386,0.791
				c0,0,0,0,0.001,0c2.697,0,5.352-0.496,7.281-1.361l17.776-7.398l0.493-207.983c-0.667-3.642-3.52-7.011-7.042-8.067
				L26.417,29.307c-1.739-0.521-9.253-1.316-10.51-1.12l-8.551,2.374c-4.051,1.188-7.223,5.425-7.223,9.646L0,223.305
				C0,227.283,2.583,232.139,5.88,234.361z"/>
		</defs>
		<clipPath id="SVGID_12_">
			<use xlink:href="#SVGID_11_"  overflow="visible"/>
		</clipPath>
		<g opacity="0.12" clip-path="url(#SVGID_12_)" filter="url(#AI_GaussianBlur_4)">
			<path fill="#F9FFE6" d="M2.5,34.5c0,0,35,17.5,67.5,27.5s52.944,12.059,63,11c19-2,118-33.5,119.5-30.5s-104,35-105,46.5
				s-11,283-11,283s-3.831-93.043-5.837-172.344C129.198,141.76,133.041,91.188,126.5,89.5C111,85.5,80,77,47,63
				C-6.875,40.144,2.5,34.5,2.5,34.5z"/>
		</g>
	</g>
	<g>
		<defs>
			<path id="SVGID_13_" d="M256,48.693l-0.48,265.048c-0.006,4.104-2.946,8.637-6.692,10.317c0,0-17.126,7.756-19.466,8.738
				c-2.465,1.036-2.537-2.367-2.537-2.367s0.014-5.414,0.014-7.347c0-3.554-2.46-2.506-2.46-2.506l-53.487,23.754
				c0,0-2.601,1.239-2.601,4.879c0,2.011,0,5.789,0,5.789s-0.108,5.265-2.706,6.425c-2.598,1.161-23.229,10.409-23.229,10.409
				c-1.66,0.744-3.82,1.153-6.086,1.153l0,0c-2.992,0.172-5.439-0.205-9.205-1.522c0,0-12.825-4.099-20.064-7.465
				c-2.698-1.255-2.914-7-2.914-7s0.049-3.565,0.05-5.515c0-3.976-2.676-5.094-2.676-5.094s-8.566-2.768-35.282-15.336
				c-26.716-12.566-37.042-19.016-37.042-19.016s-2.435-1-2.435,2.639c0,1.735,0.012,6.667,0.012,6.667s-0.044,4.249-2.805,2.681
				c-6.005-3.412-17.193-10.103-17.193-10.103C2.526,310.936,0,306.277,0,302.191c0,0,0-27.146,0-27.939s0.979-1.229,0.979-1.229
				s0.021,0.021,0.02,2.724c1.047,2.582,2.826,4.992,4.881,6.378c0.212,0.143,21.677,14.532,56.962,31.379
				c35.255,16.834,66.534,27.671,66.846,27.778c1.504,0.519,3.365,0.792,5.386,0.792c0,0,0,0,0.001,0
				c2.697,0,5.352-0.496,7.281-1.362l18.922-8.491l0.853-256.17c0.009-4.217-3.151-8.469-7.19-9.68L27.43,28.163
				c-1.738-0.521-4.022-0.808-6.431-0.808c-0.618,0-2.687,0.598-4.75,1.16c0.167-0.458,0.359-0.672,0.668-0.849l91.69-26.896
				c1.696-0.497,3.92-0.77,6.263-0.77c2.408,0,4.692,0.287,6.43,0.808l127.511,38.206C252.85,40.225,256.008,44.477,256,48.693z
				 M160.132,285.24l-17.776,7.398c-1.93,0.864-4.584,1.36-7.281,1.36c-0.001,0-0.001,0-0.001,0c-2.021,0-3.882-0.272-5.386-0.791
				c-0.312-0.106-31.59-9.942-66.846-26.778c-35.285-16.847-56.75-30.236-56.962-30.38c-2.048-1.381-3.82-3.776-4.87-6.348
				c-0.026-0.875,0.005-2.438,0.005-2.438S0,227.906,0,229.469c0,1.563,0,39.592,0,39.592c0,3.978,2.583,8.832,5.88,11.057
				c0.212,0.143,21.677,14.531,56.962,31.379c35.255,16.835,66.534,27.671,66.846,27.777c1.504,0.52,3.365,0.793,5.386,0.793
				c0,0,0,0,0.001,0c2.697,0,5.352-0.496,7.281-1.362l17.776-7.397V285.24L160.132,285.24z M5.88,234.361
				c0.212,0.143,21.677,13.533,56.962,30.379c35.255,16.836,66.534,26.672,66.846,26.779c1.504,0.518,3.365,0.791,5.386,0.791
				c0,0,0,0,0.001,0c2.697,0,5.352-0.496,7.281-1.361l17.776-7.398l0.493-207.983c-0.667-3.642-3.52-7.011-7.042-8.067
				L26.417,29.307c-1.739-0.521-9.253-1.316-10.51-1.12l-8.551,2.374c-4.051,1.188-7.223,5.425-7.223,9.646L0,223.305
				C0,227.283,2.583,232.139,5.88,234.361z"/>
		</defs>
		<clipPath id="SVGID_14_">
			<use xlink:href="#SVGID_13_"  overflow="visible"/>
		</clipPath>
		<g opacity="0.05" clip-path="url(#SVGID_14_)" filter="url(#AI_GaussianBlur_7)">
			<path fill="#F9FFE6" d="M234.334,280.333c-14,22.667-38,8.667-38,8.667s-2-91.334,22-139.333
				C225.493,135.349,240.398,270.512,234.334,280.333z"/>
		</g>
	</g>
	<g>
		<defs>
			<path id="SVGID_15_" d="M256,48.693l-0.48,265.048c-0.006,4.104-2.946,8.637-6.692,10.317c0,0-17.126,7.756-19.466,8.738
				c-2.465,1.036-2.537-2.367-2.537-2.367s0.014-5.414,0.014-7.347c0-3.554-2.46-2.506-2.46-2.506l-53.487,23.754
				c0,0-2.601,1.239-2.601,4.879c0,2.011,0,5.789,0,5.789s-0.108,5.265-2.706,6.425c-2.598,1.161-23.229,10.409-23.229,10.409
				c-1.66,0.744-3.82,1.153-6.086,1.153l0,0c-2.992,0.172-5.439-0.205-9.205-1.522c0,0-12.825-4.099-20.064-7.465
				c-2.698-1.255-2.914-7-2.914-7s0.049-3.565,0.05-5.515c0-3.976-2.676-5.094-2.676-5.094s-8.566-2.768-35.282-15.336
				c-26.716-12.566-37.042-19.016-37.042-19.016s-2.435-1-2.435,2.639c0,1.735,0.012,6.667,0.012,6.667s-0.044,4.249-2.805,2.681
				c-6.005-3.412-17.193-10.103-17.193-10.103C2.526,310.936,0,306.277,0,302.191c0,0,0-27.146,0-27.939s0.979-1.229,0.979-1.229
				s0.021,0.021,0.02,2.724c1.047,2.582,2.826,4.992,4.881,6.378c0.212,0.143,21.677,14.532,56.962,31.379
				c35.255,16.834,66.534,27.671,66.846,27.778c1.504,0.519,3.365,0.792,5.386,0.792c0,0,0,0,0.001,0
				c2.697,0,5.352-0.496,7.281-1.362l18.922-8.491l0.853-256.17c0.009-4.217-3.151-8.469-7.19-9.68L27.43,28.163
				c-1.738-0.521-4.022-0.808-6.431-0.808c-0.618,0-2.687,0.598-4.75,1.16c0.167-0.458,0.359-0.672,0.668-0.849l91.69-26.896
				c1.696-0.497,3.92-0.77,6.263-0.77c2.408,0,4.692,0.287,6.43,0.808l127.511,38.206C252.85,40.225,256.008,44.477,256,48.693z
				 M160.132,285.24l-17.776,7.398c-1.93,0.864-4.584,1.36-7.281,1.36c-0.001,0-0.001,0-0.001,0c-2.021,0-3.882-0.272-5.386-0.791
				c-0.312-0.106-31.59-9.942-66.846-26.778c-35.285-16.847-56.75-30.236-56.962-30.38c-2.048-1.381-3.82-3.776-4.87-6.348
				c-0.026-0.875,0.005-2.438,0.005-2.438S0,227.906,0,229.469c0,1.563,0,39.592,0,39.592c0,3.978,2.583,8.832,5.88,11.057
				c0.212,0.143,21.677,14.531,56.962,31.379c35.255,16.835,66.534,27.671,66.846,27.777c1.504,0.52,3.365,0.793,5.386,0.793
				c0,0,0,0,0.001,0c2.697,0,5.352-0.496,7.281-1.362l17.776-7.397V285.24L160.132,285.24z M5.88,234.361
				c0.212,0.143,21.677,13.533,56.962,30.379c35.255,16.836,66.534,26.672,66.846,26.779c1.504,0.518,3.365,0.791,5.386,0.791
				c0,0,0,0,0.001,0c2.697,0,5.352-0.496,7.281-1.361l17.776-7.398l0.493-207.983c-0.667-3.642-3.52-7.011-7.042-8.067
				L26.417,29.307c-1.739-0.521-9.253-1.316-10.51-1.12l-8.551,2.374c-4.051,1.188-7.223,5.425-7.223,9.646L0,223.305
				C0,227.283,2.583,232.139,5.88,234.361z"/>
		</defs>
		<clipPath id="SVGID_16_">
			<use xlink:href="#SVGID_15_"  overflow="visible"/>
		</clipPath>
		<g opacity="0.06" clip-path="url(#SVGID_16_)" filter="url(#AI_GaussianBlur_7)">
			<path fill="#F9FFE6" d="M24.333,101c14-22.667,22,6.667,22,6.667S36.459,123.608,31.666,163
				c-4.235,34.805-3.038,91.879-8.667,115.333C19.265,293.896,18.268,110.821,24.333,101z"/>
		</g>
	</g>
</g>
<g id="Handle">
	<linearGradient id="SVGID_17_" gradientUnits="userSpaceOnUse" x1="105.8511" y1="171.9219" x2="106.0103" y2="193.6958">
		<stop  offset="0" style="stop-color:#7A7A7A"/>
		<stop  offset="1" style="stop-color:#525252"/>
	</linearGradient>
	<path fill="url(#SVGID_17_)" d="M111.42,193.721c0,2.842-2.06,4.566-4.156,3.781l-5.11-1.857c-1.912-0.717-1.429-2.371-1.429-5.001
		l-0.429-15.924c0-2.63,1.518-4.432,3.429-4.016l4.167,0.251c2.096,0.457,3.571,3.029,3.571,5.871L111.42,193.721z"/>
	<linearGradient id="SVGID_18_" gradientUnits="userSpaceOnUse" x1="105.6689" y1="170.3252" x2="105.8338" y2="192.8724">
		<stop  offset="0" style="stop-color:#C2C2C2"/>
		<stop  offset="1" style="stop-color:#999999"/>
	</linearGradient>
	<path fill="url(#SVGID_18_)" d="M111.295,193.104c0,2.842-1.737,4.494-3.833,3.709l-5.737-2.152
		c-1.912-0.717-1.429-2.371-1.429-5.002l-0.083-16.583c0-2.63,1.518-4.432,3.429-4.016l3.821,0.91
		c2.096,0.457,3.833,3.139,3.833,5.981V193.104z"/>
	<path fill="#FFFFFF" d="M100.608,171.138c0,0,0.25-1.146,1.583-1.396s3.917,0.979,5.188,1.292c1.125,0.276,1,0.375,1,0.375l1-0.25
		l-0.333,1.083c0,0,1.167,0.75,1.25,2.833s0.167,17.917,0,19.083c-0.167,1.167-1.167,1.666-1.167,1.666s0.25,0.084,0.583-1.916
		s0.583-16.583-0.25-19.083s-1.147-2.982-2.25-3.333c-1.5-0.479-3.792-1.667-4.958-1.333S100.608,171.138,100.608,171.138z"/>
	<g opacity="0.6" filter="url(#AI_GaussianBlur_4)">
		<path d="M105.295,217.221c0,1.762-2.24,0-4,0l0,0c-1.76,0-4-7.801-4-9.562l1.667-22.917c0-1.76,2.24-4.833,4-4.833l-0.083-0.083
			c1.76,0,4.416-1.927,4.416-0.167L105.295,217.221z"/>
	</g>
	<linearGradient id="SVGID_19_" gradientUnits="userSpaceOnUse" x1="104.5859" y1="176.2451" x2="92.961" y2="217.2798">
		<stop  offset="0" style="stop-color:#7A7A7A"/>
		<stop  offset="1" style="stop-color:#525252"/>
	</linearGradient>
	<path fill="url(#SVGID_19_)" d="M102.42,173.659c0,0-6.75,3.125-7.375,4.375s-0.5,39.187-0.5,39.187s0.542,0.689,2.438,1.5
		c1.875,0.803,2.938,0.688,2.938,0.688l1.812-1.188l0.812-27.686c0,0-0.188-3.626,2.333-4.709c1.73-0.743,2.542-0.917,2.542-0.917
		l0.042-9.707c0,0-0.542-0.543-2.417-1.168S102.42,173.659,102.42,173.659z"/>
	<linearGradient id="SVGID_20_" gradientUnits="userSpaceOnUse" x1="104.5342" y1="175.252" x2="92.8054" y2="216.6534">
		<stop  offset="0" style="stop-color:#C2C2C2"/>
		<stop  offset="1" style="stop-color:#999999"/>
	</linearGradient>
	<path fill="url(#SVGID_20_)" d="M102.42,172.659c0,0-6.75,3.125-7.375,4.375s-0.542,39.439-0.542,39.439s0.646,0.855,2.542,1.666
		c1.875,0.801,2.75,0.75,2.75,0.75l1.625-0.916l1.125-28.438c0,0-0.188-3.626,2.333-4.709c1.73-0.743,2.542-0.917,2.542-0.917
		l0.042-9.707c0,0-0.542-0.543-2.417-1.168S102.42,172.659,102.42,172.659z"/>
	<path fill="#FFFFFF" d="M96.045,176.992l3.997,1.008l6.583-3.5c0,0,1-0.164,0.917,0.209s-6.417,3.624-6.75,4.374
		c-0.135,0.303-0.997,31.47-0.997,37.825c0,1.75-4.75-1.25-4.75-1.25c0,0,4.5,2.855,4.542,0.584
		c0.102-5.482,0.114-36.773-0.128-37.076C98.792,178.333,96.045,176.992,96.045,176.992z"/>
</g>
</svg>
