<svg xmlns="http://www.w3.org/2000/svg" xmlns:xlink="http://www.w3.org/1999/xlink" viewBox="0 0 110 170"><defs><style>.a{fill:url(#a);}.b{fill:#87a36c;}.c{fill:#3f5838;}</style><linearGradient id="a" x1="78.18" y1="47.24" x2="-33.29" y2="228.8" gradientUnits="userSpaceOnUse"><stop offset="0" stop-color="#748c59"/><stop offset="1" stop-color="#3f5838"/></linearGradient></defs><title>fridge-front</title><path class="a" d="M0,0V170H25a3,3,0,0,0,3-3v-1a3,3,0,0,1,3-3H79a3,3,0,0,1,3,3v1a3,3,0,0,0,3,3h25V0Z"/><path class="b" d="M0,0S97.5,2.5,101.5,8.5,110,170,110,170V0Z"/><polygon class="c" points="59 149.25 9.75 148.75 96.25 148.75 59 149.25"/><polygon class="c" points="75.25 129.75 9.75 129.25 96.25 129.25 75.25 129.75"/></svg>