<svg xmlns="http://www.w3.org/2000/svg" xmlns:xlink="http://www.w3.org/1999/xlink" viewBox="0 0 90 170"><defs><style>.a{fill:url(#a);}.b{fill:#87a36c;}.c{fill:#3f5838;}</style><linearGradient id="a" x1="23.79" y1="37.84" x2="100.84" y2="209.15" gradientUnits="userSpaceOnUse"><stop offset="0" stop-color="#748c59"/><stop offset="1" stop-color="#3f5838"/></linearGradient></defs><title>fridge-left</title><path class="a" d="M0,0V170H25a3,3,0,0,0,3-3v-1a3,3,0,0,1,3-3H59a3,3,0,0,1,3,3v1a3,3,0,0,0,3,3H90V0Z"/><path class="b" d="M90,0S17-.5,8.5,8.5,0,170,0,170V0Z"/><polygon class="c" points="12.38 149.25 7.5 148.75 20.75 148.75 12.38 149.25"/><polygon class="c" points="10.88 129.75 7.5 129.25 20.75 129.25 10.88 129.75"/><polygon class="c" points="21 45.55 20.5 111.05 20.5 24.55 21 45.55"/></svg>