<?xml version="1.0" encoding="utf-8"?>
<!-- Generator: Adobe Illustrator 21.1.0, SVG Export Plug-In . SVG Version: 6.00 Build 0)  -->
<svg version="1.1" id="Layer_1" xmlns="http://www.w3.org/2000/svg" xmlns:xlink="http://www.w3.org/1999/xlink" x="0px" y="0px"
	 viewBox="0 0 90 170" style="enable-background:new 0 0 90 170;" xml:space="preserve">
<style type="text/css">
	.st0{fill:#748D59;}
</style>
<g>
	<path class="st0" d="M3,0C1.4,0,0,1.4,0,3v164c0,1.6,1.4,3,3,3h22c1.6,0,3-1.4,3-3v-1c0-1.6,1.4-3,3-3h28c1.6,0,3,1.4,3,3v1
		c0,1.6,1.3,3,3,3h22c1.7,0,3-1.4,3-3V3c0-1.6-1.3-3-3-3H3z"/>
</g>
</svg>
