<?xml version="1.0" encoding="utf-8"?>
<!-- Generator: Adobe Illustrator 16.0.4, SVG Export Plug-In . SVG Version: 6.00 Build 0)  -->
<!DOCTYPE svg PUBLIC "-//W3C//DTD SVG 1.1//EN" "http://www.w3.org/Graphics/SVG/1.1/DTD/svg11.dtd">
<svg version="1.1" id="Layer_1" xmlns="http://www.w3.org/2000/svg" xmlns:xlink="http://www.w3.org/1999/xlink" x="0px" y="0px"
	 width="128px" height="128px" viewBox="0 0 128 128" enable-background="new 0 0 128 128" xml:space="preserve">
<g>
	<defs>
		<rect id="SVGID_1_" y="-0.001" width="128" height="128"/>
	</defs>
	<clipPath id="SVGID_2_">
		<use xlink:href="#SVGID_1_"  overflow="visible"/>
	</clipPath>
	<rect y="-0.001" clip-path="url(#SVGID_2_)" fill="#313131" width="128" height="128"/>
	<polygon clip-path="url(#SVGID_2_)" fill="#333333" points="31.937,111.357 26.101,114.397 21.528,112.922 14.116,117.199 
		10.804,123.689 7.02,126.491 0.237,125.312 -5.44,129.294 -10.17,122.952 -6.701,120.739 -4.746,109.685 -20.263,121.771 
		-13.482,130.621 -11.905,138.733 -18.844,145.076 -26.256,139.913 -23.891,134.309 -22.313,137.258 -19.947,134.751 
		-26.572,128.409 -31.776,133.719 -33.833,142.806 -26.518,147.443 -20.736,151.418 -25.818,159.883 -30.988,168.969 
		-26.414,174.869 -19.632,175.017 -16.005,170.002 -17.144,165.782 -19.317,169.854 -22.155,171.329 -22.945,166.757 
		-15.059,158.939 -8.594,169.707 -4.493,175.754 6.388,171.771 9.228,166.904 12.382,161.3 10.173,154.957 3.076,158.35 
		-0.393,169.412 -5.913,157.17 3.866,152.598 9.7,149.205 18.689,153.63 31.306,146.846 28.151,136.963 22.947,140.061 
		22.789,145.518 13.012,144.928 16.324,137.996 17.358,135.636 19.95,132.391 23.893,131.949 29.886,126.934 30.833,120.002 
		34.844,116.134 33.74,113.89 	"/>
	<polygon clip-path="url(#SVGID_2_)" fill="none" stroke="#2B2B2B" stroke-width="0.5" stroke-miterlimit="10" points="
		31.937,111.357 26.101,114.397 21.528,112.922 14.116,117.199 10.804,123.689 7.02,126.491 0.237,125.312 -5.44,129.294 
		-10.17,122.952 -6.701,120.739 -4.746,109.685 -20.263,121.771 -13.482,130.621 -11.905,138.733 -18.844,145.076 -26.256,139.913 
		-23.891,134.309 -22.313,137.258 -19.947,134.751 -26.572,128.409 -31.776,133.719 -33.833,142.806 -26.518,147.443 
		-20.736,151.418 -25.818,159.883 -30.988,168.969 -26.414,174.869 -19.632,175.017 -16.005,170.002 -17.144,165.782 
		-19.317,169.854 -22.155,171.329 -22.945,166.757 -15.059,158.939 -8.594,169.707 -4.493,175.754 6.388,171.771 9.228,166.904 
		12.382,161.3 10.173,154.957 3.076,158.35 -0.393,169.412 -5.913,157.17 3.866,152.598 9.7,149.205 18.689,153.63 31.306,146.846 
		28.151,136.963 22.947,140.061 22.789,145.518 13.012,144.928 16.324,137.996 17.358,135.636 19.95,132.391 23.893,131.949 
		29.886,126.934 30.833,120.002 34.844,116.134 33.74,113.89 	"/>
	<path opacity="0.2" clip-path="url(#SVGID_2_)" fill="none" stroke="#000000" stroke-width="0.5" stroke-miterlimit="10" d="
		M-12.731,152.133c-0.555-0.926-0.924-1.826-0.819-2c0.104-0.175-0.133-0.54-0.528-0.812c-0.395-0.271,1.279-2.319,3.721-4.551
		c2.441-2.232,4.27-4.928,4.063-5.991s-0.373-1.929-0.369-1.924s1.85-1.282,4.102-2.862s5.639-2.604,7.527-2.275
		c1.887,0.328,4.943-0.521,6.79-1.89c1.847-1.368,4.069-3.88,4.938-5.582c0.869-1.703,2.454-3.601,3.523-4.217
		c1.069-0.617,2.648-0.895,3.509-0.617c0.861,0.278,1.438,1.442,1.281,2.588c-0.156,1.146-0.979,2.665-1.83,3.376
		s-2.571,1.408-3.826,1.549c-1.254,0.141-3.284,1.513-4.512,3.049c-1.227,1.537-2.521,3.455-2.875,4.264
		c-0.354,0.809-1.566,3.398-2.693,5.758c-1.127,2.359-3.379,5.062-5.004,6.007s-5.888,3.09-9.473,4.766
		C-8.789,152.442-12.176,153.057-12.731,152.133z"/>
	<polygon clip-path="url(#SVGID_2_)" fill="#333333" points="31.937,45.179 26.101,48.219 21.528,46.744 14.116,51.021 
		10.804,57.511 7.02,60.313 0.237,59.133 -5.44,63.116 -10.17,56.773 -6.701,54.561 -4.746,43.507 -20.263,55.594 -13.482,64.443 
		-11.905,72.555 -18.844,78.897 -26.256,73.735 -23.891,68.13 -22.313,71.08 -19.947,68.573 -26.572,62.23 -31.776,67.541 
		-33.833,76.627 -26.518,81.265 -20.736,85.239 -25.818,93.704 -30.988,102.791 -26.414,108.691 -19.632,108.838 -16.005,103.824 
		-17.144,99.604 -19.317,103.676 -22.155,105.151 -22.945,100.579 -15.059,92.762 -8.594,103.529 -4.493,109.576 6.388,105.594 
		9.228,100.726 12.382,95.122 10.173,88.779 3.076,92.171 -0.393,103.234 -5.913,90.992 3.866,86.419 9.7,83.027 18.689,87.452 
		31.306,80.667 28.151,70.785 22.947,73.882 22.789,79.34 13.012,78.75 16.324,71.817 17.358,69.458 19.95,66.213 23.893,65.771 
		29.886,60.756 30.833,53.824 34.844,49.956 33.74,47.711 	"/>
	<polygon clip-path="url(#SVGID_2_)" fill="none" stroke="#2B2B2B" stroke-width="0.5" stroke-miterlimit="10" points="
		31.937,45.179 26.101,48.219 21.528,46.744 14.116,51.021 10.804,57.511 7.02,60.313 0.237,59.133 -5.44,63.116 -10.17,56.773 
		-6.701,54.561 -4.746,43.507 -20.263,55.594 -13.482,64.443 -11.905,72.555 -18.844,78.897 -26.256,73.735 -23.891,68.13 
		-22.313,71.08 -19.947,68.573 -26.572,62.23 -31.776,67.541 -33.833,76.627 -26.518,81.265 -20.736,85.239 -25.818,93.704 
		-30.988,102.791 -26.414,108.691 -19.632,108.838 -16.005,103.824 -17.144,99.604 -19.317,103.676 -22.155,105.151 
		-22.945,100.579 -15.059,92.762 -8.594,103.529 -4.493,109.576 6.388,105.594 9.228,100.726 12.382,95.122 10.173,88.779 
		3.076,92.171 -0.393,103.234 -5.913,90.992 3.866,86.419 9.7,83.027 18.689,87.452 31.306,80.667 28.151,70.785 22.947,73.882 
		22.789,79.34 13.012,78.75 16.324,71.817 17.358,69.458 19.95,66.213 23.893,65.771 29.886,60.756 30.833,53.824 34.844,49.956 
		33.74,47.711 	"/>
	<path opacity="0.2" clip-path="url(#SVGID_2_)" fill="none" stroke="#000000" stroke-width="0.5" stroke-miterlimit="10" d="
		M-12.731,85.954c-0.555-0.925-0.924-1.825-0.819-2c0.104-0.175-0.133-0.54-0.528-0.812c-0.395-0.271,1.279-2.32,3.721-4.551
		c2.441-2.232,4.27-4.928,4.063-5.991c-0.207-1.063-0.373-1.929-0.369-1.924s1.85-1.283,4.102-2.862
		c2.252-1.58,5.639-2.604,7.527-2.275c1.887,0.329,4.943-0.522,6.79-1.89s4.069-3.879,4.938-5.582
		c0.869-1.703,2.454-3.6,3.523-4.217s2.648-0.895,3.509-0.617c0.861,0.278,1.438,1.442,1.281,2.588
		c-0.156,1.146-0.979,2.665-1.83,3.376c-0.85,0.711-2.571,1.408-3.826,1.549c-1.254,0.141-3.284,1.514-4.512,3.05
		c-1.227,1.537-2.521,3.455-2.875,4.263c-0.354,0.808-1.566,3.399-2.693,5.758c-1.127,2.359-3.379,5.062-5.004,6.007
		s-5.888,3.09-9.473,4.766C-8.789,86.264-12.176,86.879-12.731,85.954z"/>
	<polygon clip-path="url(#SVGID_2_)" fill="#333333" points="31.937,-20.999 26.101,-17.959 21.528,-19.435 14.116,-15.157 
		10.804,-8.667 7.02,-5.865 0.237,-7.045 -5.44,-3.062 -10.17,-9.405 -6.701,-11.617 -4.746,-22.672 -20.263,-10.585 
		-13.482,-1.735 -11.905,6.377 -18.844,12.719 -26.256,7.557 -23.891,1.952 -22.313,4.902 -19.947,2.395 -26.572,-3.947 
		-31.776,1.362 -33.833,10.449 -26.518,15.086 -20.736,19.062 -25.818,27.526 -30.988,36.613 -26.414,42.513 -19.632,42.66 
		-16.005,37.646 -17.144,33.426 -19.317,37.498 -22.155,38.973 -22.945,34.4 -15.059,26.583 -8.594,37.351 -4.493,43.397 
		6.388,39.416 9.228,34.548 12.382,28.943 10.173,22.601 3.076,25.993 -0.393,37.056 -5.913,24.813 3.866,20.241 9.7,16.849 
		18.689,21.273 31.306,14.489 28.151,4.607 22.947,7.704 22.789,13.162 13.012,12.572 16.324,5.64 17.358,3.279 19.95,0.035 
		23.893,-0.408 29.886,-5.422 30.833,-12.354 34.844,-16.222 33.74,-18.467 	"/>
	<polygon clip-path="url(#SVGID_2_)" fill="none" stroke="#2B2B2B" stroke-width="0.5" stroke-miterlimit="10" points="
		31.937,-20.999 26.101,-17.959 21.528,-19.435 14.116,-15.157 10.804,-8.667 7.02,-5.865 0.237,-7.045 -5.44,-3.062 -10.17,-9.405 
		-6.701,-11.617 -4.746,-22.672 -20.263,-10.585 -13.482,-1.735 -11.905,6.377 -18.844,12.719 -26.256,7.557 -23.891,1.952 
		-22.313,4.902 -19.947,2.395 -26.572,-3.947 -31.776,1.362 -33.833,10.449 -26.518,15.086 -20.736,19.062 -25.818,27.526 
		-30.988,36.613 -26.414,42.513 -19.632,42.66 -16.005,37.646 -17.144,33.426 -19.317,37.498 -22.155,38.973 -22.945,34.4 
		-15.059,26.583 -8.594,37.351 -4.493,43.397 6.388,39.416 9.228,34.548 12.382,28.943 10.173,22.601 3.076,25.993 -0.393,37.056 
		-5.913,24.813 3.866,20.241 9.7,16.849 18.689,21.273 31.306,14.489 28.151,4.607 22.947,7.704 22.789,13.162 13.012,12.572 
		16.324,5.64 17.358,3.279 19.95,0.035 23.893,-0.408 29.886,-5.422 30.833,-12.354 34.844,-16.222 33.74,-18.467 	"/>
	<path opacity="0.2" clip-path="url(#SVGID_2_)" fill="none" stroke="#000000" stroke-width="0.5" stroke-miterlimit="10" d="
		M-12.731,19.776c-0.555-0.925-0.924-1.825-0.819-2c0.104-0.175-0.133-0.54-0.528-0.812c-0.395-0.272,1.279-2.32,3.721-4.552
		c2.441-2.232,4.27-4.928,4.063-5.991s-0.373-1.929-0.369-1.924c0.004,0.006,1.85-1.282,4.102-2.862S3.079-0.968,4.967-0.64
		c1.887,0.329,4.943-0.522,6.79-1.89s4.069-3.88,4.938-5.582c0.869-1.703,2.454-3.601,3.523-4.217s2.648-0.895,3.509-0.617
		c0.861,0.277,1.438,1.442,1.281,2.587c-0.156,1.146-0.979,2.665-1.83,3.376s-2.571,1.409-3.826,1.549
		c-1.254,0.141-3.284,1.513-4.512,3.05c-1.227,1.536-2.521,3.455-2.875,4.263c-0.354,0.809-1.566,3.399-2.693,5.758
		c-1.127,2.359-3.379,5.062-5.004,6.007s-5.888,3.09-9.473,4.766C-8.789,20.086-12.176,20.701-12.731,19.776z"/>
	<polygon clip-path="url(#SVGID_2_)" fill="#333333" points="95.937,25.009 90.101,21.969 85.528,23.444 78.116,19.167 
		74.804,12.677 71.02,9.875 64.237,11.055 58.56,7.072 53.83,13.415 57.299,15.627 59.254,26.682 43.737,14.595 50.518,5.745 
		52.095,-2.367 45.156,-8.709 37.744,-3.547 40.109,2.058 41.687,-0.892 44.053,1.615 37.428,7.958 32.224,2.647 30.167,-6.439 
		37.482,-11.077 43.264,-15.051 38.182,-23.516 33.012,-32.603 37.586,-38.503 44.368,-38.65 47.995,-33.636 46.856,-29.416 
		44.683,-33.488 41.845,-34.963 41.055,-30.391 48.941,-22.574 55.406,-33.341 59.507,-39.388 70.388,-35.406 73.228,-30.538 
		76.382,-24.934 74.173,-18.591 67.076,-21.983 63.607,-33.046 58.087,-20.804 67.866,-16.231 73.7,-12.839 82.689,-17.264 
		95.306,-10.479 92.151,-0.597 86.947,-3.694 86.789,-9.152 77.012,-8.562 80.324,-1.629 81.358,0.73 83.95,3.975 87.893,4.417 
		93.886,9.432 94.833,16.364 98.844,20.232 97.74,22.477 	"/>
	<polygon clip-path="url(#SVGID_2_)" fill="none" stroke="#2B2B2B" stroke-width="0.5" stroke-miterlimit="10" points="
		95.937,25.009 90.101,21.969 85.528,23.444 78.116,19.167 74.804,12.677 71.02,9.875 64.237,11.055 58.56,7.072 53.83,13.415 
		57.299,15.627 59.254,26.682 43.737,14.595 50.518,5.745 52.095,-2.367 45.156,-8.709 37.744,-3.547 40.109,2.058 41.687,-0.892 
		44.053,1.615 37.428,7.958 32.224,2.647 30.167,-6.439 37.482,-11.077 43.264,-15.051 38.182,-23.516 33.012,-32.603 
		37.586,-38.503 44.368,-38.65 47.995,-33.636 46.856,-29.416 44.683,-33.488 41.845,-34.963 41.055,-30.391 48.941,-22.574 
		55.406,-33.341 59.507,-39.388 70.388,-35.406 73.228,-30.538 76.382,-24.934 74.173,-18.591 67.076,-21.983 63.607,-33.046 
		58.087,-20.804 67.866,-16.231 73.7,-12.839 82.689,-17.264 95.306,-10.479 92.151,-0.597 86.947,-3.694 86.789,-9.152 
		77.012,-8.562 80.324,-1.629 81.358,0.73 83.95,3.975 87.893,4.417 93.886,9.432 94.833,16.364 98.844,20.232 97.74,22.477 	"/>
	<path opacity="0.2" clip-path="url(#SVGID_2_)" fill="none" stroke="#000000" stroke-width="0.5" stroke-miterlimit="10" d="
		M51.269-15.766c-0.555,0.925-0.924,1.825-0.819,2c0.104,0.175-0.133,0.54-0.528,0.812c-0.395,0.271,1.279,2.32,3.721,4.551
		c2.441,2.232,4.27,4.928,4.063,5.991c-0.207,1.063-0.373,1.929-0.369,1.924s1.85,1.283,4.102,2.862
		c2.252,1.58,5.639,2.604,7.527,2.275c1.887-0.329,4.943,0.522,6.79,1.89s4.069,3.88,4.938,5.582
		c0.869,1.703,2.454,3.601,3.523,4.217c1.069,0.617,2.648,0.895,3.509,0.617c0.861-0.278,1.438-1.442,1.281-2.588
		c-0.156-1.146-0.979-2.665-1.83-3.376s-2.571-1.408-3.826-1.549c-1.254-0.141-3.284-1.513-4.512-3.05
		c-1.227-1.537-2.521-3.455-2.875-4.263c-0.354-0.808-1.566-3.399-2.693-5.758c-1.127-2.359-3.379-5.062-5.004-6.007
		s-5.888-3.09-9.473-4.766C55.211-16.076,51.824-16.691,51.269-15.766z"/>
	<polygon clip-path="url(#SVGID_2_)" fill="#333333" points="95.937,91.187 90.101,88.147 85.528,89.623 78.116,85.345 
		74.804,78.855 71.02,76.053 64.237,77.233 58.56,73.25 53.83,79.593 57.299,81.805 59.254,92.86 43.737,80.773 50.518,71.923 
		52.095,63.811 45.156,57.469 37.744,62.631 40.109,68.236 41.687,65.286 44.053,67.793 37.428,74.135 32.224,68.826 30.167,59.739 
		37.482,55.102 43.264,51.127 38.182,42.662 33.012,33.575 37.586,27.675 44.368,27.528 47.995,32.542 46.856,36.762 44.683,32.69 
		41.845,31.215 41.055,35.788 48.941,43.604 55.406,32.837 59.507,26.791 70.388,30.772 73.228,35.64 76.382,41.245 74.173,47.587 
		67.076,44.195 63.607,33.132 58.087,45.375 67.866,49.947 73.7,53.339 82.689,48.915 95.306,55.699 92.151,65.581 86.947,62.484 
		86.789,57.026 77.012,57.616 80.324,64.549 81.358,66.909 83.95,70.153 87.893,70.596 93.886,75.61 94.833,82.542 98.844,86.41 
		97.74,88.655 	"/>
	<polygon clip-path="url(#SVGID_2_)" fill="none" stroke="#2B2B2B" stroke-width="0.5" stroke-miterlimit="10" points="
		95.937,91.187 90.101,88.147 85.528,89.623 78.116,85.345 74.804,78.855 71.02,76.053 64.237,77.233 58.56,73.25 53.83,79.593 
		57.299,81.805 59.254,92.86 43.737,80.773 50.518,71.923 52.095,63.811 45.156,57.469 37.744,62.631 40.109,68.236 41.687,65.286 
		44.053,67.793 37.428,74.135 32.224,68.826 30.167,59.739 37.482,55.102 43.264,51.127 38.182,42.662 33.012,33.575 37.586,27.675 
		44.368,27.528 47.995,32.542 46.856,36.762 44.683,32.69 41.845,31.215 41.055,35.788 48.941,43.604 55.406,32.837 59.507,26.791 
		70.388,30.772 73.228,35.64 76.382,41.245 74.173,47.587 67.076,44.195 63.607,33.132 58.087,45.375 67.866,49.947 73.7,53.339 
		82.689,48.915 95.306,55.699 92.151,65.581 86.947,62.484 86.789,57.026 77.012,57.616 80.324,64.549 81.358,66.909 83.95,70.153 
		87.893,70.596 93.886,75.61 94.833,82.542 98.844,86.41 97.74,88.655 	"/>
	<path opacity="0.2" clip-path="url(#SVGID_2_)" fill="none" stroke="#000000" stroke-width="0.5" stroke-miterlimit="10" d="
		M36.63,20.412c0.555,0.925,0.924,1.825,0.819,2c-0.104,0.175,0.133,0.54,0.528,0.812c0.395,0.271-1.279,2.32-3.721,4.551
		c-2.441,2.232-4.27,4.928-4.063,5.991c0.207,1.063,0.373,1.929,0.369,1.924s-1.85,1.283-4.102,2.862
		c-2.252,1.58-5.639,2.604-7.527,2.275c-1.887-0.329-4.943,0.522-6.79,1.89s-4.069,3.88-4.938,5.582
		C6.335,50.002,4.75,51.9,3.681,52.517c-1.069,0.617-2.648,0.895-3.509,0.617c-0.861-0.278-1.438-1.442-1.281-2.588
		c0.156-1.146,0.979-2.665,1.83-3.376s2.571-1.408,3.826-1.549c1.254-0.141,3.284-1.513,4.512-3.05
		c1.227-1.537,2.521-3.455,2.875-4.263c0.354-0.808,1.566-3.399,2.693-5.758c1.127-2.359,3.379-5.062,5.004-6.007
		s5.888-3.09,9.473-4.766C32.688,20.102,36.075,19.487,36.63,20.412z"/>
	<path opacity="0.2" clip-path="url(#SVGID_2_)" fill="none" stroke="#000000" stroke-width="0.5" stroke-miterlimit="10" d="
		M51.269,50.412c-0.555,0.925-0.924,1.825-0.819,2c0.104,0.175-0.133,0.54-0.528,0.812c-0.395,0.271,1.279,2.32,3.721,4.551
		c2.441,2.232,4.27,4.928,4.063,5.991c-0.207,1.063-0.373,1.929-0.369,1.924s1.85,1.283,4.102,2.862
		c2.252,1.58,5.639,2.604,7.527,2.275c1.887-0.329,4.943,0.522,6.79,1.89s4.069,3.88,4.938,5.582
		c0.869,1.703,2.454,3.601,3.523,4.217s2.648,0.895,3.509,0.617c0.861-0.277,1.438-1.442,1.281-2.587
		c-0.156-1.146-0.979-2.665-1.83-3.376s-2.571-1.409-3.826-1.549c-1.254-0.141-3.284-1.513-4.512-3.05
		c-1.227-1.536-2.521-3.455-2.875-4.263c-0.354-0.808-1.566-3.399-2.693-5.758c-1.127-2.359-3.379-5.062-5.004-6.007
		s-5.888-3.09-9.473-4.766C55.211,50.102,51.824,49.487,51.269,50.412z"/>
	<polygon clip-path="url(#SVGID_2_)" fill="#333333" points="95.937,157.365 90.101,154.326 85.528,155.801 78.116,151.523 
		74.804,145.033 71.02,142.23 64.237,143.411 58.56,139.429 53.83,145.771 57.299,147.983 59.254,159.037 43.737,146.951 
		50.518,138.102 52.095,129.989 45.156,123.647 37.744,128.809 40.109,134.414 41.687,131.465 44.053,133.971 37.428,140.314 
		32.224,135.004 30.167,125.917 37.482,121.28 43.264,117.305 38.182,108.84 33.012,99.753 37.586,93.854 44.368,93.706 
		47.995,98.721 46.856,102.94 44.683,98.868 41.845,97.394 41.055,101.966 48.941,109.783 55.406,99.016 59.507,92.969 
		70.388,96.951 73.228,101.818 76.382,107.423 74.173,113.765 67.076,110.373 63.607,99.311 58.087,111.553 67.866,116.125 
		73.7,119.517 82.689,115.092 95.306,121.877 92.151,131.76 86.947,128.662 86.789,123.205 77.012,123.794 80.324,130.727 
		81.358,133.086 83.95,136.332 87.893,136.773 93.886,141.789 94.833,148.721 98.844,152.588 97.74,154.833 	"/>
	<polygon clip-path="url(#SVGID_2_)" fill="none" stroke="#2B2B2B" stroke-width="0.5" stroke-miterlimit="10" points="
		95.937,157.365 90.101,154.326 85.528,155.801 78.116,151.523 74.804,145.033 71.02,142.23 64.237,143.411 58.56,139.429 
		53.83,145.771 57.299,147.983 59.254,159.037 43.737,146.951 50.518,138.102 52.095,129.989 45.156,123.647 37.744,128.809 
		40.109,134.414 41.687,131.465 44.053,133.971 37.428,140.314 32.224,135.004 30.167,125.917 37.482,121.28 43.264,117.305 
		38.182,108.84 33.012,99.753 37.586,93.854 44.368,93.706 47.995,98.721 46.856,102.94 44.683,98.868 41.845,97.394 
		41.055,101.966 48.941,109.783 55.406,99.016 59.507,92.969 70.388,96.951 73.228,101.818 76.382,107.423 74.173,113.765 
		67.076,110.373 63.607,99.311 58.087,111.553 67.866,116.125 73.7,119.517 82.689,115.092 95.306,121.877 92.151,131.76 
		86.947,128.662 86.789,123.205 77.012,123.794 80.324,130.727 81.358,133.086 83.95,136.332 87.893,136.773 93.886,141.789 
		94.833,148.721 98.844,152.588 97.74,154.833 	"/>
	<path opacity="0.2" clip-path="url(#SVGID_2_)" fill="none" stroke="#000000" stroke-width="0.5" stroke-miterlimit="10" d="
		M36.63,86.59c0.555,0.925,0.924,1.825,0.819,2c-0.104,0.175,0.133,0.54,0.528,0.812c0.395,0.271-1.279,2.319-3.721,4.551
		c-2.441,2.232-4.27,4.928-4.063,5.991c0.207,1.063,0.373,1.929,0.369,1.924s-1.85,1.283-4.102,2.862s-5.639,2.604-7.527,2.275
		c-1.887-0.329-4.943,0.522-6.79,1.89s-4.069,3.879-4.938,5.582c-0.869,1.703-2.454,3.6-3.523,4.217s-2.648,0.895-3.509,0.617
		c-0.861-0.278-1.438-1.442-1.281-2.588c0.156-1.146,0.979-2.665,1.83-3.376c0.85-0.711,2.571-1.408,3.826-1.549
		c1.254-0.141,3.284-1.514,4.512-3.05c1.227-1.537,2.521-3.455,2.875-4.264c0.354-0.808,1.566-3.398,2.693-5.757
		c1.127-2.359,3.379-5.062,5.004-6.007c1.625-0.945,5.888-3.09,9.473-4.766C32.688,86.28,36.075,85.666,36.63,86.59z"/>
	<path opacity="0.2" clip-path="url(#SVGID_2_)" fill="none" stroke="#000000" stroke-width="0.5" stroke-miterlimit="10" d="
		M51.269,116.59c-0.555,0.925-0.924,1.825-0.819,2c0.104,0.175-0.133,0.54-0.528,0.812c-0.395,0.271,1.279,2.319,3.721,4.551
		c2.441,2.232,4.27,4.928,4.063,5.991c-0.207,1.063-0.373,1.929-0.369,1.924s1.85,1.282,4.102,2.862s5.639,2.604,7.527,2.275
		c1.887-0.328,4.943,0.521,6.79,1.89s4.069,3.88,4.938,5.582c0.869,1.702,2.454,3.601,3.523,4.218s2.648,0.895,3.509,0.617
		c0.861-0.278,1.438-1.443,1.281-2.588c-0.156-1.146-0.979-2.666-1.83-3.377s-2.571-1.408-3.826-1.549
		c-1.254-0.141-3.284-1.514-4.512-3.049c-1.227-1.537-2.521-3.455-2.875-4.264c-0.354-0.809-1.566-3.398-2.693-5.758
		c-1.127-2.359-3.379-5.062-5.004-6.007c-1.625-0.945-5.888-3.09-9.473-4.766C55.211,116.28,51.824,115.666,51.269,116.59z"/>
	<polygon clip-path="url(#SVGID_2_)" fill="#333333" points="159.937,111.357 154.102,114.397 149.527,112.922 142.116,117.199 
		138.804,123.689 135.02,126.491 128.237,125.312 122.56,129.294 117.83,122.952 121.299,120.739 123.254,109.685 107.737,121.771 
		114.518,130.621 116.095,138.733 109.156,145.076 101.744,139.913 104.109,134.309 105.687,137.258 108.053,134.751 
		101.428,128.409 96.224,133.719 94.167,142.806 101.482,147.443 107.264,151.418 102.182,159.883 97.012,168.969 101.586,174.869 
		108.368,175.017 111.995,170.002 110.856,165.782 108.683,169.854 105.845,171.329 105.055,166.757 112.941,158.939 
		119.406,169.707 123.507,175.754 134.389,171.771 137.228,166.904 140.382,161.3 138.173,154.957 131.076,158.35 127.607,169.412 
		122.087,157.17 131.865,152.598 137.7,149.205 146.689,153.63 159.306,146.846 156.151,136.963 150.947,140.061 150.789,145.518 
		141.012,144.928 144.324,137.996 145.358,135.636 147.95,132.391 151.893,131.949 157.886,126.934 158.833,120.002 
		162.844,116.134 161.74,113.89 	"/>
	<polygon clip-path="url(#SVGID_2_)" fill="none" stroke="#2B2B2B" stroke-width="0.5" stroke-miterlimit="10" points="
		159.937,111.357 154.102,114.397 149.527,112.922 142.116,117.199 138.804,123.689 135.02,126.491 128.237,125.312 122.56,129.294 
		117.83,122.952 121.299,120.739 123.254,109.685 107.737,121.771 114.518,130.621 116.095,138.733 109.156,145.076 
		101.744,139.913 104.109,134.309 105.687,137.258 108.053,134.751 101.428,128.409 96.224,133.719 94.167,142.806 101.482,147.443 
		107.264,151.418 102.182,159.883 97.012,168.969 101.586,174.869 108.368,175.017 111.995,170.002 110.856,165.782 
		108.683,169.854 105.845,171.329 105.055,166.757 112.941,158.939 119.406,169.707 123.507,175.754 134.389,171.771 
		137.228,166.904 140.382,161.3 138.173,154.957 131.076,158.35 127.607,169.412 122.087,157.17 131.865,152.598 137.7,149.205 
		146.689,153.63 159.306,146.846 156.151,136.963 150.947,140.061 150.789,145.518 141.012,144.928 144.324,137.996 
		145.358,135.636 147.95,132.391 151.893,131.949 157.886,126.934 158.833,120.002 162.844,116.134 161.74,113.89 	"/>
	<path opacity="0.2" clip-path="url(#SVGID_2_)" fill="none" stroke="#000000" stroke-width="0.5" stroke-miterlimit="10" d="
		M115.269,152.133c-0.555-0.926-0.924-1.826-0.819-2c0.104-0.175-0.133-0.54-0.528-0.812c-0.395-0.271,1.279-2.319,3.721-4.551
		c2.441-2.232,4.27-4.928,4.063-5.991s-0.373-1.929-0.369-1.924s1.85-1.282,4.102-2.862s5.639-2.604,7.527-2.275
		c1.887,0.328,4.943-0.521,6.79-1.89c1.847-1.368,4.069-3.88,4.938-5.582c0.869-1.703,2.454-3.601,3.523-4.217
		c1.069-0.617,2.648-0.895,3.51-0.617c0.86,0.278,1.438,1.442,1.28,2.588c-0.156,1.146-0.979,2.665-1.829,3.376
		c-0.851,0.711-2.572,1.408-3.826,1.549s-3.284,1.513-4.512,3.049c-1.227,1.537-2.521,3.455-2.875,4.264
		c-0.354,0.809-1.566,3.398-2.693,5.758s-3.379,5.062-5.004,6.007c-1.626,0.945-5.889,3.09-9.474,4.766
		C119.211,152.442,115.824,153.057,115.269,152.133z"/>
	<polygon clip-path="url(#SVGID_2_)" fill="#333333" points="159.937,45.179 154.102,48.219 149.527,46.744 142.116,51.021 
		138.804,57.511 135.02,60.313 128.237,59.133 122.56,63.116 117.83,56.773 121.299,54.561 123.254,43.507 107.737,55.594 
		114.518,64.443 116.095,72.555 109.156,78.897 101.744,73.735 104.109,68.13 105.687,71.08 108.053,68.573 101.428,62.23 
		96.224,67.541 94.167,76.627 101.482,81.265 107.264,85.239 102.182,93.704 97.012,102.791 101.586,108.691 108.368,108.838 
		111.995,103.824 110.856,99.604 108.683,103.676 105.845,105.151 105.055,100.579 112.941,92.762 119.406,103.529 123.507,109.576 
		134.389,105.594 137.228,100.726 140.382,95.122 138.173,88.779 131.076,92.171 127.607,103.234 122.087,90.992 131.865,86.419 
		137.7,83.027 146.689,87.452 159.306,80.667 156.151,70.785 150.947,73.882 150.789,79.34 141.012,78.75 144.324,71.817 
		145.358,69.458 147.95,66.213 151.893,65.771 157.886,60.756 158.833,53.824 162.844,49.956 161.74,47.711 	"/>
	<polygon clip-path="url(#SVGID_2_)" fill="none" stroke="#2B2B2B" stroke-width="0.5" stroke-miterlimit="10" points="
		159.937,45.179 154.102,48.219 149.527,46.744 142.116,51.021 138.804,57.511 135.02,60.313 128.237,59.133 122.56,63.116 
		117.83,56.773 121.299,54.561 123.254,43.507 107.737,55.594 114.518,64.443 116.095,72.555 109.156,78.897 101.744,73.735 
		104.109,68.13 105.687,71.08 108.053,68.573 101.428,62.23 96.224,67.541 94.167,76.627 101.482,81.265 107.264,85.239 
		102.182,93.704 97.012,102.791 101.586,108.691 108.368,108.838 111.995,103.824 110.856,99.604 108.683,103.676 105.845,105.151 
		105.055,100.579 112.941,92.762 119.406,103.529 123.507,109.576 134.389,105.594 137.228,100.726 140.382,95.122 138.173,88.779 
		131.076,92.171 127.607,103.234 122.087,90.992 131.865,86.419 137.7,83.027 146.689,87.452 159.306,80.667 156.151,70.785 
		150.947,73.882 150.789,79.34 141.012,78.75 144.324,71.817 145.358,69.458 147.95,66.213 151.893,65.771 157.886,60.756 
		158.833,53.824 162.844,49.956 161.74,47.711 	"/>
	<path opacity="0.2" clip-path="url(#SVGID_2_)" fill="none" stroke="#000000" stroke-width="0.5" stroke-miterlimit="10" d="
		M100.63,115.954c0.555-0.925,0.924-1.825,0.819-2c-0.104-0.175,0.133-0.54,0.528-0.812c0.395-0.271-1.279-2.32-3.721-4.551
		c-2.441-2.232-4.27-4.928-4.063-5.991c0.207-1.063,0.373-1.929,0.369-1.924s-1.85-1.283-4.102-2.862
		c-2.252-1.58-5.639-2.604-7.527-2.275c-1.887,0.329-4.943-0.522-6.79-1.89s-4.069-3.88-4.938-5.582
		c-0.869-1.703-2.454-3.601-3.523-4.217c-1.069-0.617-2.648-0.895-3.509-0.617c-0.861,0.278-1.438,1.442-1.281,2.588
		c0.156,1.146,0.979,2.665,1.83,3.376s2.571,1.408,3.826,1.549c1.254,0.141,3.284,1.513,4.512,3.05
		c1.227,1.537,2.521,3.455,2.875,4.263c0.354,0.808,1.566,3.399,2.693,5.758c1.127,2.359,3.379,5.062,5.004,6.007
		s5.888,3.09,9.473,4.766C96.688,116.264,100.075,116.879,100.63,115.954z"/>
	<path opacity="0.2" clip-path="url(#SVGID_2_)" fill="none" stroke="#000000" stroke-width="0.5" stroke-miterlimit="10" d="
		M115.269,85.954c-0.555-0.925-0.924-1.825-0.819-2c0.104-0.175-0.133-0.54-0.528-0.812c-0.395-0.271,1.279-2.32,3.721-4.551
		c2.441-2.232,4.27-4.928,4.063-5.991c-0.207-1.063-0.373-1.929-0.369-1.924s1.85-1.283,4.102-2.862
		c2.252-1.58,5.639-2.604,7.527-2.275c1.887,0.329,4.943-0.522,6.79-1.89s4.069-3.879,4.938-5.582s2.454-3.6,3.523-4.217
		s2.648-0.895,3.51-0.617c0.86,0.278,1.438,1.442,1.28,2.588c-0.156,1.146-0.979,2.665-1.829,3.376
		c-0.851,0.711-2.572,1.408-3.826,1.549s-3.284,1.514-4.512,3.05c-1.227,1.537-2.521,3.455-2.875,4.263
		c-0.354,0.808-1.566,3.399-2.693,5.758s-3.379,5.062-5.004,6.007c-1.626,0.945-5.889,3.09-9.474,4.766
		C119.211,86.264,115.824,86.879,115.269,85.954z"/>
	<polygon clip-path="url(#SVGID_2_)" fill="#333333" points="159.937,-20.999 154.102,-17.959 149.527,-19.435 142.116,-15.157 
		138.804,-8.667 135.02,-5.865 128.237,-7.045 122.56,-3.062 117.83,-9.405 121.299,-11.617 123.254,-22.672 107.737,-10.585 
		114.518,-1.735 116.095,6.377 109.156,12.719 101.744,7.557 104.109,1.952 105.687,4.902 108.053,2.395 101.428,-3.947 
		96.224,1.362 94.167,10.449 101.482,15.086 107.264,19.062 102.182,27.526 97.012,36.613 101.586,42.513 108.368,42.66 
		111.995,37.646 110.856,33.426 108.683,37.498 105.845,38.973 105.055,34.4 112.941,26.583 119.406,37.351 123.507,43.397 
		134.389,39.416 137.228,34.548 140.382,28.943 138.173,22.601 131.076,25.993 127.607,37.056 122.087,24.813 131.865,20.241 
		137.7,16.849 146.689,21.273 159.306,14.489 156.151,4.607 150.947,7.704 150.789,13.162 141.012,12.572 144.324,5.64 
		145.358,3.279 147.95,0.035 151.893,-0.408 157.886,-5.422 158.833,-12.354 162.844,-16.222 161.74,-18.467 	"/>
	<polygon clip-path="url(#SVGID_2_)" fill="none" stroke="#2B2B2B" stroke-width="0.5" stroke-miterlimit="10" points="
		159.937,-20.999 154.102,-17.959 149.527,-19.435 142.116,-15.157 138.804,-8.667 135.02,-5.865 128.237,-7.045 122.56,-3.062 
		117.83,-9.405 121.299,-11.617 123.254,-22.672 107.737,-10.585 114.518,-1.735 116.095,6.377 109.156,12.719 101.744,7.557 
		104.109,1.952 105.687,4.902 108.053,2.395 101.428,-3.947 96.224,1.362 94.167,10.449 101.482,15.086 107.264,19.062 
		102.182,27.526 97.012,36.613 101.586,42.513 108.368,42.66 111.995,37.646 110.856,33.426 108.683,37.498 105.845,38.973 
		105.055,34.4 112.941,26.583 119.406,37.351 123.507,43.397 134.389,39.416 137.228,34.548 140.382,28.943 138.173,22.601 
		131.076,25.993 127.607,37.056 122.087,24.813 131.865,20.241 137.7,16.849 146.689,21.273 159.306,14.489 156.151,4.607 
		150.947,7.704 150.789,13.162 141.012,12.572 144.324,5.64 145.358,3.279 147.95,0.035 151.893,-0.408 157.886,-5.422 
		158.833,-12.354 162.844,-16.222 161.74,-18.467 	"/>
	<path opacity="0.2" clip-path="url(#SVGID_2_)" fill="none" stroke="#000000" stroke-width="0.5" stroke-miterlimit="10" d="
		M100.63,49.776c0.555-0.925,0.924-1.825,0.819-2c-0.104-0.175,0.133-0.54,0.528-0.812c0.395-0.272-1.279-2.32-3.721-4.552
		c-2.441-2.232-4.27-4.928-4.063-5.991s0.373-1.929,0.369-1.924c-0.004,0.006-1.85-1.282-4.102-2.862s-5.639-2.604-7.527-2.275
		c-1.887,0.329-4.943-0.522-6.79-1.89s-4.069-3.88-4.938-5.582c-0.869-1.703-2.454-3.601-3.523-4.217s-2.648-0.895-3.509-0.617
		c-0.861,0.277-1.438,1.442-1.281,2.587c0.156,1.146,0.979,2.665,1.83,3.376s2.571,1.409,3.826,1.549
		c1.254,0.141,3.284,1.513,4.512,3.05c1.227,1.536,2.521,3.455,2.875,4.263c0.354,0.809,1.566,3.399,2.693,5.758
		c1.127,2.359,3.379,5.062,5.004,6.007s5.888,3.09,9.473,4.766C96.688,50.086,100.075,50.701,100.63,49.776z"/>
	<path opacity="0.2" clip-path="url(#SVGID_2_)" fill="none" stroke="#000000" stroke-width="0.5" stroke-miterlimit="10" d="
		M115.269,19.776c-0.555-0.925-0.924-1.825-0.819-2c0.104-0.175-0.133-0.54-0.528-0.812c-0.395-0.272,1.279-2.32,3.721-4.552
		c2.441-2.232,4.27-4.928,4.063-5.991s-0.373-1.929-0.369-1.924c0.004,0.006,1.85-1.282,4.102-2.862s5.639-2.604,7.527-2.275
		c1.887,0.329,4.943-0.522,6.79-1.89s4.069-3.88,4.938-5.582c0.869-1.703,2.454-3.601,3.523-4.217s2.648-0.895,3.51-0.617
		c0.86,0.277,1.438,1.442,1.28,2.587c-0.156,1.146-0.979,2.665-1.829,3.376c-0.851,0.711-2.572,1.409-3.826,1.549
		s-3.284,1.513-4.512,3.05c-1.227,1.536-2.521,3.455-2.875,4.263c-0.354,0.809-1.566,3.399-2.693,5.758
		c-1.127,2.359-3.379,5.062-5.004,6.007c-1.626,0.945-5.889,3.09-9.474,4.766C119.211,20.086,115.824,20.701,115.269,19.776z"/>
</g>
</svg>
